PathFileType	4	(X/Y/Z)	Patient4_TMGait_0pt4_02_right_19.trc.trc
DataRate	CameraRate	NumFrames	NumMarkers	Units	OrigDataRate	OrigDataStartFrame	OrigNumFrames
74.468085106383	74.468085106383	4	33	mm	74.468085106383	106	       141
Frame#	Time	Sacral			L.Shoulder			Chest			R.Shoulder			Neck			R.ASIS			L.ASIS			R.Thigh.Superior			R.Thigh.Lateral			R.Thigh.Inferior			R.Patella			L.Thigh.Superior			L.Thigh.Lateral			L.Thigh.Inferior			L.Patella			L.Shank.Superior			L.Shank.Lateral			L.Shank.Inferior			R.Shank.Superior			R.Shank.Lateral			R.Shank.Inferior			R.Heel			R.Midfoot.Superior			R.Midfoot.Lateral			R.Toe			L.Heel			L.Midfoot.Lateral			L.Midfoot.Superior			L.Toe			L.Elbow			L.Wrist			R.Elbow			R.Wrist			
		X1	Y1	Z1	X2	Y2	Z2	X3	Y3	Z3	X4	Y4	Z4	X5	Y5	Z5	X6	Y6	Z6	X7	Y7	Z7	X8	Y8	Z8	X9	Y9	Z9	X10	Y10	Z10	X11	Y11	Z11	X12	Y12	Z12	X13	Y13	Z13	X14	Y14	Z14	X15	Y15	Z15	X16	Y16	Z16	X17	Y17	Z17	X18	Y18	Z18	X19	Y19	Z19	X20	Y20	Z20	X21	Y21	Z21	X22	Y22	Z22	X23	Y23	Z23	X24	Y24	Z24	X25	Y25	Z25	X26	Y26	Z26	X27	Y27	Z27	X28	Y28	Z28	X29	Y29	Z29	X30	Y30	Z30	X31	Y31	Z31	X32	Y32	Z32	X33	Y33	Z33	

106	26.210000000000	866.228148294994	999.194499436000	455.354447801799	1042.206919439132	1433.047697214501	264.231793234820	1139.409024282872	1371.303226252224	431.143372263435	1045.528222380173	1443.431837732320	600.304608035217	1017.922065180231	1496.601696028237	420.537944931858	1095.977218196782	950.933913744854	576.850323943943	1087.404577289988	965.742836522818	302.388047265408	1191.372253514034	788.163352943311	547.747216492685	1162.252918593651	665.388771216372	624.889691110002	1252.830534200947	632.357361627786	544.476654724976	1283.223105327462	525.716481055130	569.584977325469	1138.633449099567	750.771281307838	336.352008822292	1051.836446871912	634.442593544957	273.295849697813	1131.191597387926	556.377320316638	341.214950012662	1129.463742019088	486.845364239670	352.084557492393	1100.204814956981	413.829951425331	341.839286137475	1008.796212711962	303.562348478889	286.460363506221	1048.634885018625	190.443582433008	360.242378341752	1219.595565871112	441.498833589962	579.534805392978	1108.909171503040	381.521275258519	643.019806368853	1114.610820384208	270.658579742639	596.628182593551	930.129526199601	176.872067568633	572.838715368143	1103.751240759056	140.802092523228	610.613063148954	996.828371732973	126.172169120247	646.392931671617	1183.796949741190	39.753347383864	638.615527956866	913.471761189572	38.161873732246	395.685765110813	988.241099908219	35.815688423320	315.497248232655	1070.830433674475	96.397869899007	345.586317987802	1199.800267295559	46.095694207373	316.159650820517	1082.322471761361	1096.314510704990	117.262257940023	1275.731721680558	917.151910118550	111.036941042259	1002.705142178097	1096.161757123215	717.632915624536	1106.998992380080	856.308468741768	717.364314863826	
107	26.223428571429	865.353575958941	999.960341947287	453.886052055212	1044.647172637174	1433.946782654900	264.666195914175	1139.845054207501	1371.432976138417	432.417818879014	1044.436834017494	1443.484567046000	600.688161466659	1018.712487652814	1497.134945122211	421.004666977863	1094.019807904023	951.768645762009	577.471656309197	1087.691460154208	965.892933272100	302.830028053571	1189.895734339472	789.673182428747	548.372468658660	1161.287691600131	666.875268750563	625.780797928919	1251.485063482251	633.950406345096	545.117763558906	1283.311497813081	529.245145461229	570.569827730763	1136.583061411229	750.194592563777	337.667559351903	1049.126395782636	634.633650452007	273.294909952056	1127.051439445362	555.847675086017	341.840607500827	1124.550629331283	486.425435901640	352.585252951939	1095.324954364675	413.645825073951	342.059382745700	1003.913808396774	303.512873955263	286.459875296824	1043.342103877072	190.338647665305	360.346419730691	1223.668368708925	443.427921516914	580.688326701478	1116.976661122521	377.337847425315	644.383404766317	1128.988711403263	267.006084825691	597.849041923068	950.501911225444	161.711532115500	573.999666796773	1125.826348962329	137.523913732846	612.225763681980	1020.281136009399	116.102849637082	647.947940995935	1212.324843189611	42.384591495543	640.945582867731	908.051853079208	38.141823319846	395.660301910665	982.830491495787	35.794873955209	315.490579301348	1065.433097238224	96.368601126951	345.625948228923	1194.404539576610	46.043319728324	316.188844238572	1087.768253769514	1098.958599080974	115.629156841177	1288.421795688736	927.874319790409	110.343337347987	994.084367314069	1097.063924396287	716.936354281250	1083.222139736831	850.908987601698	721.409696428434	
108	26.236857142857	864.547744548597	1000.736804617221	452.530626271240	1047.240646801366	1434.731014181458	265.287784260986	1140.446072843048	1371.429976124897	433.837825853981	1043.610610368961	1443.505931855296	601.216692952480	1019.652738971266	1497.582616908653	421.630699292963	1092.120107874938	952.402094453879	578.218429140136	1088.006050649952	965.988909463604	303.392448450317	1187.984291482903	790.511306775818	549.159956523236	1159.395016790607	667.739680523296	626.738738741986	1249.177209239191	634.696815649586	545.918034036018	1282.226540620548	532.185713701623	571.522088342162	1134.453064716735	749.583097604166	338.977936541037	1046.354745806199	634.831536661035	273.291118804047	1122.843594718032	555.328300348675	342.413993905509	1119.571077145620	486.026361418425	353.019956682252	1090.394640698191	413.469461332063	342.239545530423	998.986414633362	303.459319189069	286.434917066539	1038.034201034028	190.236983254930	360.423862606672	1226.984822881862	444.969960054310	581.821571283798	1125.084277311593	372.653916776701	645.971318640430	1143.641065476972	263.294614895016	599.157572776149	972.227905531070	146.345941878285	575.622076357069	1148.689305304041	134.681252361991	613.939544705667	1045.081144781026	106.175421557393	649.708876132076	1241.519450248805	45.929323183311	642.890064649843	902.641394028255	38.122223299600	395.632976299574	977.419042799507	35.771581003952	315.483188283028	1060.035104653540	96.333646767958	345.659665735141	1189.009565037618	45.977640427995	316.216485824331	1093.014184697968	1101.450428449227	114.306604041931	1300.376448294383	938.538436951139	110.091696131132	985.721202201465	1098.226187747197	716.512266026479	1060.228561120534	847.168932473366	725.246911664851	
109	26.250285714286	863.841616839202	1001.511297772100	451.306779363809	1049.930652553926	1435.382749287725	266.097970116282	1141.197053782140	1371.297607012827	435.391069245567	1043.052819321449	1443.491043551041	601.898443588747	1020.723819443398	1497.933301023478	422.420559887497	1090.336620453138	952.820171729251	579.079614777802	1088.357479035290	966.029969059943	304.063412463920	1185.648214044917	790.617089396149	550.127875832187	1156.550228129218	667.947888005756	627.769601476627	1245.921774287756	634.570029828302	546.899009387024	1279.975507139579	534.492055870087	572.408648111421	1132.282721856771	748.932279879149	340.241432038937	1043.542760447989	635.030998224901	273.280147046425	1118.600227578994	554.813122789098	342.922645750183	1114.563306803682	485.646535579693	353.378786324163	1085.443123410521	413.295860447652	342.376770186988	994.035014725002	303.402127596638	286.384078810069	1032.724212341184	190.137298381950	360.475532833400	1229.488372992305	446.138974144674	582.896548345672	1133.153196379953	367.640694097362	647.756352772707	1158.335097595239	259.727047730847	600.495640621931	995.012910603763	131.258912094290	577.692932875466	1171.969011926602	132.477675832617	615.629154555876	1070.876368310986	96.738542402387	651.592806029540	1270.854713305980	50.480938259330	644.208709027340	897.238383448139	38.107181545843	395.603345009233	972.007117172406	35.749163660869	315.473876298459	1054.638095637387	96.293878642870	345.686374704908	1183.614709767308	45.897943236952	316.240880802139	1098.096471628103	1103.756582099104	113.310083816769	1311.582497723680	949.004647424547	110.277824178971	977.607192299327	1099.645760075684	716.382714983908	1038.258370918568	844.950959543213	728.814371221504	
